<svg width="22" height="22" viewBox="0 0 22 22" fill="none" xmlns="http://www.w3.org/2000/svg">
<g clip-path="url(#clip0_3_240)">
<path d="M11.0047 5.3515C7.88528 5.3515 5.35986 7.87967 5.35986 10.9963C5.35986 14.1158 7.88803 16.6412 11.0047 16.6412C14.1241 16.6412 16.6495 14.113 16.6495 10.9963C16.6495 7.87692 14.1214 5.3515 11.0047 5.3515V5.3515ZM11.0047 14.6603C8.97978 14.6603 7.34078 13.0203 7.34078 10.9963C7.34078 8.97234 8.9807 7.33242 11.0047 7.33242C13.0287 7.33242 14.6686 8.97234 14.6686 10.9963C14.6695 13.0203 13.0296 14.6603 11.0047 14.6603V14.6603Z" fill="white"/>
<path d="M15.5353 0.0709355C13.5113 -0.0234812 8.49802 -0.0188978 6.47218 0.0709355C4.69202 0.154352 3.12176 0.584269 1.85585 1.85019C-0.259819 3.96585 0.010598 6.81669 0.010598 10.9976C0.010598 15.2766 -0.227735 18.0614 1.85585 20.145C3.97976 22.268 6.87185 21.9903 11.0033 21.9903C15.2419 21.9903 16.7049 21.993 18.2037 21.4128C20.2414 20.6217 21.7796 18.8003 21.9299 15.5287C22.0253 13.5038 22.0198 8.49144 21.9299 6.4656C21.7484 2.60369 19.6758 0.261602 15.5353 0.0709355V0.0709355ZM18.739 18.7453C17.3521 20.1322 15.428 20.0084 10.9767 20.0084C6.39335 20.0084 4.55543 20.0763 3.21435 18.7315C1.66976 17.1943 1.94935 14.7257 1.94935 10.9829C1.94935 5.91835 1.4296 2.27094 6.51252 2.0106C7.68035 1.96935 8.0241 1.9556 10.9638 1.9556L11.0051 1.9831C15.89 1.9831 19.7226 1.4716 19.9527 6.5536C20.0049 7.71319 20.0168 8.06152 20.0168 10.9967C20.0159 15.5269 20.1021 17.3758 18.739 18.7453V18.7453Z" fill="white"/>
<path d="M16.8724 6.4478C17.6011 6.4478 18.1918 5.85722 18.1918 5.12871C18.1918 4.4002 17.6011 3.80963 16.8724 3.80963C16.1438 3.80963 15.5531 4.4002 15.5531 5.12871C15.5531 5.85722 16.1438 6.4478 16.8724 6.4478Z" fill="white"/>
</g>
<defs>
<clipPath id="clip0_3_240">
<rect width="22" height="22" fill="white"/>
</clipPath>
</defs>
</svg>
