<svg width="22" height="22" viewBox="0 0 22 22" fill="none" xmlns="http://www.w3.org/2000/svg">
<g clip-path="url(#clip0_3_238)">
<path d="M21.5133 5.43491L21.5408 5.61458C21.2749 4.67133 20.5572 3.94349 19.6451 3.67858L19.6259 3.67399C17.9108 3.20833 11.0092 3.20833 11.0092 3.20833C11.0092 3.20833 4.12503 3.19916 2.39253 3.67399C1.46303 3.94349 0.744359 4.67133 0.483109 5.59533L0.478526 5.61458C-0.162224 8.96133 -0.166808 12.9827 0.506942 16.566L0.478526 16.3845C0.744359 17.3277 1.46211 18.0556 2.37419 18.3205L2.39344 18.3251C4.10669 18.7917 11.0101 18.7917 11.0101 18.7917C11.0101 18.7917 17.8934 18.7917 19.6268 18.3251C20.5572 18.0556 21.2759 17.3277 21.5371 16.4037L21.5417 16.3845C21.8332 14.828 22 13.0368 22 11.2072C22 11.1402 22 11.0724 21.9991 11.0046C22 10.9422 22 10.868 22 10.7937C22 8.96316 21.8332 7.17199 21.5133 5.43491V5.43491ZM8.80736 14.3467V7.66149L14.5512 11.0092L8.80736 14.3467Z" fill="white"/>
</g>
<defs>
<clipPath id="clip0_3_238">
<rect width="22" height="22" fill="white"/>
</clipPath>
</defs>
</svg>
